<?xml version="1.0" standalone="no"?>
<!DOCTYPE svg PUBLIC "-//W3C//DTD SVG 20010904//EN"
 "http://www.w3.org/TR/2001/REC-SVG-20010904/DTD/svg10.dtd">
<svg version="1.0" xmlns="http://www.w3.org/2000/svg"
 width="512.000000pt" height="512.000000pt" viewBox="0 0 512.000000 512.000000"
 preserveAspectRatio="xMidYMid meet">
<metadata>
Created by potrace 1.16, written by Peter Selinger 2001-2019
</metadata>
<g transform="translate(0.000000,512.000000) scale(0.100000,-0.100000)"
fill="#000000" stroke="none">
<path d="M4824 4848 c-83 -84 -284 -292 -446 -463 -163 -170 -367 -380 -453
-465 -86 -85 -202 -204 -258 -265 l-102 -110 110 100 c216 196 423 406 804
815 212 228 412 443 445 477 102 109 56 68 -100 -89z"/>
<path d="M4904 4358 c-115 -106 -289 -265 -385 -353 -95 -89 -275 -251 -399
-360 -447 -397 -384 -359 169 102 73 61 160 126 192 145 32 18 113 86 181 151
68 65 198 189 291 275 160 149 167 157 167 194 0 21 -1 38 -3 38 -1 0 -97 -87
-213 -192z"/>
<path d="M5070 4183 c-62 -47 -351 -284 -485 -397 -252 -212 -443 -389 -538
-501 -48 -55 -44 -53 43 28 240 223 507 458 753 664 233 195 276 233 265 233
-2 0 -19 -12 -38 -27z"/>
<path d="M5045 3873 c-38 -36 -180 -165 -315 -287 -254 -229 -630 -592 -630
-608 0 -6 93 80 208 190 114 109 315 298 447 419 220 203 376 354 365 353 -3
-1 -36 -31 -75 -67z"/>
<path d="M4937 3857 c-92 -67 -259 -204 -677 -557 -435 -367 -498 -418 -460
-373 19 22 55 78 79 124 l45 84 -170 -175 c-209 -216 -405 -407 -636 -621 -98
-90 -332 -315 -520 -499 -189 -184 -300 -289 -248 -232 52 57 117 129 145 160
l49 57 -74 -70 c-602 -564 -922 -905 -1240 -1320 -46 -60 -120 -155 -163 -210
-44 -55 -66 -86 -50 -70 48 48 381 412 463 505 146 168 265 292 292 303 14 7
52 34 85 62 90 77 571 565 599 608 14 22 28 37 30 34 3 -3 28 20 57 50 74 79
597 577 687 655 41 36 179 145 305 243 127 98 259 204 295 235 427 370 497
431 845 746 61 54 165 148 233 208 108 96 129 117 120 116 -2 0 -42 -29 -91
-63z"/>
<path d="M3320 3438 c-96 -94 -251 -235 -345 -313 -253 -211 -491 -440 -1335
-1285 -421 -421 -862 -855 -980 -965 -406 -378 -660 -643 -660 -689 0 -5 21
11 48 34 209 190 374 344 481 450 70 69 146 138 170 155 24 16 116 100 205
186 192 187 449 410 506 439 22 11 40 24 40 29 0 4 24 24 53 44 102 70 749
725 1238 1255 718 778 769 833 757 832 -1 -1 -82 -78 -178 -172z"/>
<path d="M3284 3538 l-29 -33 33 29 c30 28 37 36 29 36 -2 0 -16 -15 -33 -32z"/>
<path d="M4934 3374 c-181 -159 -970 -941 -1144 -1134 -139 -154 -78 -97 475
450 275 272 580 564 678 649 109 95 177 161 177 173 0 10 -2 18 -3 18 -2 0
-85 -70 -183 -156z"/>
<path d="M4790 3346 c-193 -179 -462 -452 -751 -761 -242 -259 -293 -315 -287
-315 2 0 80 80 172 178 93 97 365 374 605 615 240 240 434 437 431 437 -3 0
-80 -69 -170 -154z"/>
<path d="M3228 2913 c-323 -318 -617 -612 -654 -653 -51 -57 -38 -46 57 46 68
66 266 256 439 421 312 297 566 552 689 691 34 40 61 72 59 72 -2 0 -268 -260
-590 -577z"/>
<path d="M4935 3302 c-178 -168 -1204 -1204 -1175 -1187 17 10 213 189 275
251 22 22 65 60 95 84 108 87 227 195 375 339 83 80 205 198 273 261 67 63
172 167 233 232 102 109 110 120 107 153 l-3 36 -180 -169z"/>
<path d="M3159 3423 l-34 -38 38 34 c20 19 37 36 37 38 0 8 -8 0 -41 -34z"/>
<path d="M3059 3333 l-34 -38 38 34 c20 19 37 36 37 38 0 8 -8 0 -41 -34z"/>
<path d="M3719 3283 l-24 -28 28 24 c25 23 32 31 24 31 -2 0 -14 -12 -28 -27z"/>
<path d="M2974 3258 l-19 -23 23 19 c21 18 27 26 19 26 -2 0 -12 -10 -23 -22z"/>
<path d="M3833 2823 c-151 -122 -284 -249 -388 -373 -62 -74 -210 -237 -329
-362 -119 -126 -213 -228 -209 -228 11 0 262 255 413 420 176 192 348 369 475
488 60 56 107 102 103 102 -3 0 -32 -21 -65 -47z"/>
<path d="M2729 2133 l-24 -28 28 24 c25 23 32 31 24 31 -2 0 -14 -12 -28 -27z"/>
<path d="M3679 2113 c-13 -16 -12 -17 4 -4 9 7 17 15 17 17 0 8 -8 3 -21 -13z"/>
<path d="M2595 1988 l-90 -93 93 90 c50 49 92 91 92 92 0 8 -12 -4 -95 -89z"/>
<path d="M3564 2025 c-28 -24 -107 -106 -174 -182 -151 -169 -190 -216 -90
-108 41 44 130 137 199 208 69 70 123 127 121 127 -3 0 -28 -21 -56 -45z"/>
<path d="M3630 1995 c-24 -25 -42 -45 -39 -45 3 0 25 20 49 45 24 25 42 45 39
45 -3 0 -25 -20 -49 -45z"/>
<path d="M2219 1933 l-34 -38 38 34 c34 33 42 41 34 41 -2 0 -19 -17 -38 -37z"/>
<path d="M2139 1863 l-24 -28 28 24 c25 23 32 31 24 31 -2 0 -14 -12 -28 -27z"/>
<path d="M2864 1838 l-19 -23 23 19 c21 18 27 26 19 26 -2 0 -12 -10 -23 -22z"/>
<path d="M1990 1743 c-132 -110 -450 -392 -450 -399 0 -2 105 87 233 199 128
111 257 223 287 249 30 26 53 47 50 47 -3 0 -57 -43 -120 -96z"/>
<path d="M2799 1783 c-13 -16 -12 -17 4 -4 9 7 17 15 17 17 0 8 -8 3 -21 -13z"/>
<path d="M3354 1708 l-19 -23 23 19 c12 11 22 21 22 23 0 8 -8 2 -26 -19z"/>
<path d="M3199 1623 c-13 -16 -12 -17 4 -4 16 13 21 21 13 21 -2 0 -10 -8 -17
-17z"/>
<path d="M1880 1453 c-261 -201 -508 -415 -760 -658 -141 -137 -242 -228 -385
-350 -134 -114 -472 -456 -439 -444 7 2 78 62 160 134 81 72 181 158 221 193
40 34 146 133 236 220 89 86 196 187 237 223 419 367 837 749 820 748 -3 0
-43 -30 -90 -66z"/>
<path d="M3048 1383 c-139 -158 -306 -363 -295 -363 3 0 34 37 70 83 84 107
194 235 273 319 58 60 72 78 60 78 -3 0 -51 -53 -108 -117z"/>
<path d="M2209 1193 c-32 -39 -44 -57 -32 -50 13 8 57 67 50 67 -2 0 -10 -8
-18 -17z"/>
<path d="M2127 1176 c-9 -11 -36 -46 -60 -76 -23 -30 -76 -98 -117 -150 -188
-236 -381 -500 -366 -500 2 0 21 24 43 53 47 64 264 324 394 472 74 84 101
123 114 163 20 60 18 69 -8 38z"/>
<path d="M1174 948 c-126 -123 -326 -314 -444 -425 -118 -110 -235 -223 -260
-249 -25 -27 0 -6 55 47 55 52 199 188 320 301 261 245 572 547 564 547 -3 1
-108 -99 -235 -221z"/>
<path d="M2724 988 l-19 -23 23 19 c21 18 27 26 19 26 -2 0 -12 -10 -23 -22z"/>
<path d="M2650 905 c-24 -25 -42 -45 -39 -45 3 0 25 20 49 45 24 25 42 45 39
45 -3 0 -25 -20 -49 -45z"/>
<path d="M2554 798 l-19 -23 23 19 c12 11 22 21 22 23 0 8 -8 2 -26 -19z"/>
<path d="M1088 694 c-120 -104 -585 -560 -600 -588 -6 -11 18 5 54 37 36 31
70 57 75 57 5 0 43 29 84 65 81 70 78 69 98 56 11 -7 -8 -35 -89 -128 -57 -65
-111 -127 -119 -138 -8 -11 118 113 281 275 228 228 302 308 326 354 53 98 50
107 -14 46 -49 -46 -52 -47 -16 -9 31 33 40 48 29 52 -8 3 -53 -29 -109 -79z
m27 -6 c-3 -12 -12 -29 -20 -37 -14 -14 -15 -14 -12 6 3 18 24 53 33 53 1 0 1
-10 -1 -22z m-45 -42 c0 -2 -8 -10 -17 -17 -16 -13 -17 -12 -4 4 13 16 21 21
21 13z m-70 -90 c0 -2 -8 -10 -17 -17 -16 -13 -17 -12 -4 4 13 16 21 21 21 13z"/>
<path d="M2514 748 l-19 -23 23 19 c21 18 27 26 19 26 -2 0 -12 -10 -23 -22z"/>
<path d="M2463 683 c-42 -55 -75 -103 -70 -103 3 0 28 32 56 70 53 74 63 97
14 33z"/>
<path d="M375 188 l-40 -43 43 40 c23 21 42 40 42 42 0 8 -9 0 -45 -39z"/>
<path d="M969 103 c-13 -16 -12 -17 4 -4 16 13 21 21 13 21 -2 0 -10 -8 -17
-17z"/>
</g>
</svg>